<?xml version="1.0" encoding="UTF-8"?>
<svg id="Capa_1" data-name="Capa 1" xmlns="http://www.w3.org/2000/svg" viewBox="200 80 440 360">
  <defs>
    <style>
      .cls-1 {
        font-size: 12.87px;
      }

      .cls-1, .cls-2 {
        fill: #aea79e;
        font-family: MontserratRoman-Regular, Montserrat;
        font-variation-settings: 'wght' 400;
      }

      .cls-2 {
        font-size: 20.62px;
        letter-spacing: .11em;
      }

      .cls-3 {
        fill: #f5f0e9;
      }

      .cls-3, .cls-4 {
        stroke-width: 0px;
      }

      .cls-5 {
        letter-spacing: .1em;
      }

      .cls-6 {
        letter-spacing: .11em;
      }

      .cls-4 {
        fill: #cfc6b9;
      }

      .cls-7 {
        letter-spacing: .11em;
      }

      .cls-8 {
        letter-spacing: .1em;
      }
    </style>
  </defs>
  <path class="cls-3" d="M559.08,196.97c10.24,15.44,19.72,31.33,24.73,49.33,14.76,52.98,6.16,101.66-28.65,144.65-32.28,39.87-75.06,58.56-125.97,57.57-38.11-.74-71.61-14.8-100.08-40.14-29.44-26.21-46.04-59.7-50.86-98.28-3.53-28.26,1.27-56.08,13.1-82.35.85-1.89,1.49-3.88,2.23-5.82,9.1-16.81,20.49-31.77,34.51-44.87,23.16-21.63,50.43-34.68,81.54-39.33,43.2-6.45,82.47,3.86,117.92,29.26,11.93,8.55,21.77,19.21,31.52,30Z"/>
  <path class="cls-4" d="M446.93,282.25c-.05,8.16-7.46,18.99-14.27,21-7.52,2.22-13.31-2.95-12.2-11.18.98-7.24,3.23-14.17,6.12-20.88,1.71-3.98,3.97-8.07-3.61-10.14,7.95-.76,10.54-5.9,13.1-11.3.85-1.79,2.53-3.3,4.11-4.6,1.54-1.26,3.58-2.99,5.51-1.31,1.77,1.54-.37,3.26-.88,4.88-.15.49-.46.93-.72,1.38-2.75,4.81-6.48,9.92,3.43,10.33-.17.84-.13,1.18-.28,1.33-3.01,2.99-8.89-1.08-10.83,4.17-3.51,9.45-8.39,18.52-8.65,28.93-.04,1.76-.19,3.81,1.83,4.78,2.17,1.04,4.02.12,5.69-1.31,3.03-2.58,4.96-5.93,6.86-9.37,1.31-2.36,1.59-5.57,4.79-6.74Z"/>
  <text class="cls-2" transform="translate(374.04 344.13) scale(1.19 1)"><tspan x="0" y="0">THELMA</tspan></text>
  <text class="cls-1" transform="translate(379.75 367.08) scale(1.36 1)"><tspan class="cls-6" x="0" y="0">C</tspan><tspan class="cls-5" x="10.72" y="0">L</tspan><tspan class="cls-8" x="19.58" y="0">O</tspan><tspan class="cls-7" x="31.71" y="0">THING</tspan></text>
</svg>